<svg xmlns="http://www.w3.org/2000/svg" width="200" height="200" viewBox="0 0 200 200">
  <defs>
    <pattern id="kawung" x="0" y="0" width="100" height="100" patternUnits="userSpaceOnUse">
      <rect width="100" height="100" fill="#f5f5dc"/>
      <circle cx="50" cy="50" r="20" fill="none" stroke="#8B4513" stroke-width="2"/>
      <circle cx="50" cy="50" r="10" fill="none" stroke="#8B4513" stroke-width="1"/>
      <ellipse cx="50" cy="50" rx="12" ry="22" fill="none" stroke="#8B4513" stroke-width="2" transform="rotate(45 50 50)"/>
      <ellipse cx="50" cy="50" rx="12" ry="22" fill="none" stroke="#8B4513" stroke-width="2" transform="rotate(135 50 50)"/>
      <ellipse cx="50" cy="50" rx="12" ry="22" fill="none" stroke="#8B4513" stroke-width="2" transform="rotate(225 50 50)"/>
      <ellipse cx="50" cy="50" rx="12" ry="22" fill="none" stroke="#8B4513" stroke-width="2" transform="rotate(315 50 50)"/>
      <circle cx="50" cy="25" r="3" fill="#8B4513"/>
      <circle cx="50" cy="75" r="3" fill="#8B4513"/>
      <circle cx="25" cy="50" r="3" fill="#8B4513"/>
      <circle cx="75" cy="50" r="3" fill="#8B4513"/>
      <circle cx="0" cy="0" r="8" fill="none" stroke="#8B4513" stroke-width="1.5"/>
      <circle cx="100" cy="0" r="8" fill="none" stroke="#8B4513" stroke-width="1.5"/>
      <circle cx="0" cy="100" r="8" fill="none" stroke="#8B4513" stroke-width="1.5"/>
      <circle cx="100" cy="100" r="8" fill="none" stroke="#8B4513" stroke-width="1.5"/>
    </pattern>
  </defs>
  <rect width="200" height="200" fill="url(#kawung)"/>
</svg>
